<svg width="860px" height="378px" viewBox="0 0 511 210" fill="none" xmlns="http://www.w3.org/2000/svg" style="transform:scale(1);">
<path d="M96.5369 206V162.224H0.056866V140.912L96.5369 4.39999H129.945V130.832H155.577V162.224H129.945V206H96.5369ZM96.5369 130.832V52.208L44.4089 130.832H96.5369ZM260.47 209.456C247.03 209.456 235.318 206.48 225.334 200.528C215.542 194.384 207.958 186.128 202.582 175.76C197.398 165.392 193.558 154.448 191.062 142.928C188.758 131.216 187.606 118.64 187.606 105.2C187.606 92.144 188.758 79.952 191.062 68.624C193.366 57.104 197.11 46.064 202.294 35.504C207.478 24.944 215.062 16.592 225.046 10.448C235.03 4.112 246.838 0.943996 260.47 0.943996C274.102 0.943996 285.814 4.016 295.606 10.16C305.59 16.112 313.174 24.272 318.358 34.64C323.734 45.008 327.574 56.048 329.878 67.76C332.374 79.28 333.622 91.76 333.622 105.2C333.622 118.256 332.374 130.544 329.878 142.064C327.574 153.392 323.83 164.336 318.646 174.896C313.462 185.456 305.878 193.904 295.894 200.24C285.91 206.384 274.102 209.456 260.47 209.456ZM237.142 166.256C243.094 173.552 250.87 177.2 260.47 177.2C270.07 177.2 277.846 173.456 283.798 165.968C289.942 158.48 293.974 149.744 295.894 139.76C298.006 129.584 299.062 118.064 299.062 105.2C299.062 92.144 298.006 80.528 295.894 70.352C293.782 60.176 289.654 51.44 283.51 44.144C277.558 36.848 269.878 33.2 260.47 33.2C250.87 33.2 242.998 36.944 236.854 44.432C230.902 51.92 226.87 60.752 224.758 70.928C222.838 80.912 221.878 92.336 221.878 105.2C221.878 118.256 222.934 129.872 225.046 140.048C227.158 150.224 231.19 158.96 237.142 166.256ZM274.87 119.888C271.03 123.728 266.23 125.648 260.47 125.648C254.71 125.648 249.91 123.728 246.07 119.888C242.23 115.856 240.31 110.96 240.31 105.2C240.31 99.632 242.23 94.928 246.07 91.088C249.91 87.056 254.71 85.04 260.47 85.04C266.23 85.04 271.03 87.056 274.87 91.088C278.902 94.928 280.918 99.632 280.918 105.2C280.918 110.96 278.902 115.856 274.87 119.888ZM461.266 173.168H510.514V206H376.882V173.168H426.994V47.888L383.218 59.696V27.44L461.266 4.11199V173.168Z" fill="#FBFBFB"/>
</svg>
